<svg width="100" height="49" viewBox="0 0 100 49" fill="none" xmlns="http://www.w3.org/2000/svg">
<mask id="mask0_247_886" style="mask-type:alpha" maskUnits="userSpaceOnUse" x="0" y="0" width="100" height="49">
<rect y="0.174316" width="100" height="48" fill="#C4C4C4"/>
</mask>
<g mask="url(#mask0_247_886)">
<path d="M1.81425 21.8943C1.38405 21.8943 1.16895 21.7281 1.16895 21.3957V21.3077C1.16895 21.073 1.38405 20.7699 1.81425 20.3984C2.24445 20.0073 2.55733 19.5673 2.75287 19.0784L8.58994 4.0898C8.72682 3.67915 8.58016 3.20984 8.14996 2.68186C7.71976 2.13433 7.50466 1.79213 7.50466 1.65524V1.53792C7.50466 1.22504 7.70998 1.0686 8.12063 1.0686H13.7817C14.1924 1.0686 14.3977 1.22504 14.3977 1.53792V1.65524C14.3977 1.81168 14.2706 2.00723 14.0164 2.24188C13.7622 2.47654 13.547 2.74053 13.3711 3.03385C13.2146 3.32717 13.2048 3.64004 13.3417 3.97247L19.8828 19.0784C20.0783 19.5478 20.3912 19.978 20.8214 20.3691C21.2711 20.7602 21.496 21.073 21.496 21.3077V21.3957C21.496 21.7281 21.2711 21.8943 20.8214 21.8943H14.5737C14.1239 21.8943 13.899 21.7281 13.899 21.3957V21.3077C13.899 21.1121 14.0261 20.9166 14.2803 20.721C14.5541 20.5059 14.7888 20.2713 14.9843 20.0171C15.1994 19.7433 15.2385 19.4304 15.1016 19.0784L14.163 16.7319H6.03806L5.1581 19.0784C5.02121 19.4304 5.05055 19.7433 5.24609 20.0171C5.44164 20.2713 5.66652 20.5059 5.92073 20.721C6.19449 20.9166 6.33138 21.1121 6.33138 21.3077V21.3957C6.33138 21.7281 6.1065 21.8943 5.65674 21.8943H1.81425ZM6.71269 14.8253H13.5177L10.0272 5.82039L6.71269 14.8253Z" fill="white"/>
<path d="M36.3582 8.22561C36.7688 8.30383 36.9741 8.54826 36.9741 8.95891V9.04691C36.9741 9.16424 36.7688 9.44778 36.3582 9.89754C35.9475 10.3473 35.7422 10.8459 35.7422 11.3935V20.1637C35.7422 22.6081 35.0773 24.4853 33.7476 25.7955C32.4375 27.1056 30.7655 27.7607 28.7319 27.7607C26.6982 27.7607 25.0262 27.3598 23.7161 26.5581C22.4255 25.7564 21.7802 24.8177 21.7802 23.7422C21.7802 23.312 21.9268 22.9307 22.2202 22.5983C22.533 22.2854 22.973 22.129 23.5401 22.129C23.9899 22.129 24.3712 22.2756 24.684 22.569C25.0165 22.8818 25.2902 23.2534 25.5053 23.6836C25.74 24.1138 25.9844 24.544 26.2386 24.9742C26.4928 25.4044 26.8351 25.7661 27.2653 26.0595C27.6955 26.3723 28.2137 26.5288 28.8199 26.5288C29.6607 26.5288 30.3353 26.1084 30.8438 25.2675C31.3522 24.4462 31.6064 23.1556 31.6064 21.3957V20.6624C30.6678 21.4837 29.4945 21.8943 28.0866 21.8943C26.2289 21.8943 24.6156 21.249 23.2468 19.9584C21.8975 18.6678 21.2229 16.9568 21.2229 14.8253C21.2229 12.6939 21.8877 10.9437 23.2174 9.57488C24.5667 8.20606 26.2093 7.52164 28.1452 7.52164C29.7487 7.52164 31.0393 8.03984 32.017 9.07624V8.43093C32.017 8.15717 32.1344 7.95185 32.369 7.81496C32.6037 7.65853 32.9068 7.61942 33.2783 7.69764L36.3582 8.22561ZM29.0838 20.633C29.7487 20.633 30.3353 20.3593 30.8438 19.8118C31.3522 19.2447 31.6064 18.4723 31.6064 17.4945V12.6254C31.6064 11.6672 31.274 10.7873 30.6091 9.98553C29.9638 9.18379 29.2207 8.78292 28.3799 8.78292C27.4804 8.78292 26.7666 9.16423 26.2386 9.92687C25.7107 10.6699 25.4271 11.7259 25.388 13.0947C25.3489 14.1507 25.4662 15.2457 25.74 16.3799C26.0138 17.5141 26.444 18.5016 27.0306 19.3424C27.6368 20.1833 28.3212 20.6135 29.0838 20.633Z" fill="white"/>
<path d="M49.9957 17.4359C50.1717 17.2012 50.3868 17.123 50.641 17.2012C50.8952 17.2794 51.0126 17.4652 50.993 17.7585C50.8952 18.7949 50.3379 19.7922 49.3211 20.7504C48.3238 21.7086 46.9354 22.1876 45.1559 22.1876C42.9854 22.1876 41.2157 21.5032 39.8468 20.1344C38.478 18.746 37.7936 16.947 37.7936 14.7373C37.7936 12.6254 38.4878 10.9046 39.8762 9.57488C41.2646 8.22561 42.9658 7.5412 44.9799 7.52164C46.6421 7.50209 47.9914 7.86385 49.0278 8.60693C50.0642 9.35001 50.5824 10.3571 50.5824 11.6281C50.5824 12.6645 50.1424 13.5738 49.2624 14.356C48.402 15.1186 47.2776 15.6271 45.8892 15.8813C44.7942 16.1159 43.5916 16.1746 42.2814 16.0573C42.6725 17.0154 43.2298 17.7683 43.9533 18.3158C44.6964 18.8633 45.547 19.1371 46.5052 19.1371C48.1282 19.1371 49.2918 18.57 49.9957 17.4359ZM44.4226 8.87091C43.6013 8.87091 42.9365 9.24245 42.4281 9.98553C41.9392 10.7286 41.6948 11.6672 41.6948 12.8014C41.6948 13.4467 41.7534 14.0627 41.8708 14.6493C42.9463 14.7275 43.8458 14.6787 44.5693 14.5027C45.9186 14.2484 46.5932 13.2316 46.5932 11.4521C46.5737 10.7286 46.3586 10.1224 45.9479 9.63355C45.5568 9.12513 45.0484 8.87091 44.4226 8.87091Z" fill="white"/>
<path d="M67.2143 19.0491C67.2534 19.5184 67.4392 19.9584 67.7716 20.3691C68.104 20.7797 68.2702 21.0926 68.2702 21.3077V21.425C68.2702 21.7574 68.0454 21.9237 67.5956 21.9237H62.5212C62.0714 21.9237 61.8465 21.7574 61.8465 21.425V21.3077C61.8465 21.1121 62.0225 20.809 62.3745 20.3984C62.7461 19.9877 62.922 19.538 62.9025 19.0491L62.6092 13.6227C62.4723 10.6699 61.6217 9.19357 60.0573 9.19357C59.2751 9.19357 58.6591 9.48689 58.2094 10.0735C57.7792 10.6602 57.5641 11.4424 57.5641 12.4201V19.0784C57.5641 19.5478 57.7694 19.9877 58.18 20.3984C58.6102 20.809 58.8253 21.1121 58.8253 21.3077V21.425C58.8253 21.7574 58.6005 21.9237 58.1507 21.9237H52.695C52.2452 21.9237 52.0203 21.7574 52.0203 21.425V21.3077C52.0203 21.1121 52.2256 20.809 52.6363 20.3984C53.0665 19.9877 53.2816 19.5478 53.2816 19.0784V12.2441C53.2816 11.9508 53.2034 11.6868 53.0469 11.4521C52.9101 11.2175 52.7438 11.0513 52.5483 10.9535C52.3723 10.8362 52.2061 10.6993 52.0496 10.5428C51.9128 10.3864 51.8443 10.23 51.8443 10.0735V9.9562C51.8443 9.7411 52.0399 9.53577 52.431 9.34023L55.9215 7.63897C56.2539 7.48253 56.4983 7.47276 56.6548 7.60964C56.8308 7.72697 56.9188 7.94207 56.9188 8.25494V9.89754C57.7596 8.31361 59.2067 7.52164 61.2599 7.52164C62.746 7.52164 64.0073 8.02029 65.0437 9.01758C66.0997 10.0149 66.7059 11.5988 66.8623 13.7694L67.2143 19.0491Z" fill="white"/>
<path d="M76.3237 22.1876C74.1531 22.1876 72.3443 21.4641 70.8973 20.0171C69.4698 18.57 68.7561 16.8394 68.7561 14.8253C68.7561 12.6352 69.4698 10.8753 70.8973 9.54555C72.3443 8.21583 74.0945 7.5412 76.1477 7.52164C77.8294 7.50209 79.2569 7.89318 80.4302 8.69492C81.623 9.49667 82.2194 10.4744 82.2194 11.6281C82.2194 12.0583 82.0728 12.4201 81.7795 12.7134C81.4861 12.9872 81.0266 13.1143 80.4008 13.0947C79.9315 13.0752 79.5209 12.909 79.1689 12.5961C78.8169 12.2832 78.5236 11.9214 78.2889 11.5108C78.0738 11.1001 77.849 10.6895 77.6143 10.2789C77.3797 9.8682 77.0863 9.526 76.7344 9.25223C76.3824 8.95891 75.9717 8.81225 75.5024 8.81225C74.6811 8.81225 74.0163 9.18379 73.5078 9.92687C73.019 10.6699 72.7745 11.5988 72.7745 12.7134C72.7745 14.6689 73.2243 16.2332 74.1238 17.4065C75.0429 18.5798 76.2553 19.1664 77.761 19.1664C79.3058 19.1664 80.4791 18.482 81.2808 17.1132C81.3981 16.9568 81.535 16.8688 81.6915 16.8492C81.8675 16.8101 82.0141 16.8492 82.1314 16.9665C82.2683 17.0643 82.327 17.211 82.3074 17.4065C82.2097 18.7167 81.6328 19.8411 80.5768 20.7797C79.5404 21.7183 78.1227 22.1876 76.3237 22.1876Z" fill="white"/>
<path d="M96.324 7.60964C97.0866 7.53142 97.4679 7.71719 97.4679 8.16695V20.2517C97.4679 22.657 96.7542 24.5049 95.3267 25.7955C93.8992 27.1056 92.1002 27.7607 89.9296 27.7607C88.1893 27.7607 86.7031 27.3598 85.4712 26.5581C84.2588 25.7564 83.6526 24.7689 83.6526 23.5956C83.6526 23.1263 83.809 22.7254 84.1219 22.393C84.4543 22.0801 84.8845 21.9237 85.4125 21.9237C85.9991 21.9237 86.4782 22.1583 86.8498 22.6276C87.2213 23.1165 87.4951 23.6445 87.6711 24.2116C87.8471 24.7786 88.1599 25.3066 88.6097 25.7955C89.079 26.2843 89.6754 26.5288 90.3989 26.5288C92.2566 26.5288 93.1855 24.6418 93.1855 20.8677V20.5157C92.3055 21.4348 91.0442 21.8943 89.4016 21.8943C87.9155 21.8943 86.6542 21.3566 85.6178 20.2811C84.601 19.2056 84.0926 17.8074 84.0926 16.0866V11.1295C84.0926 10.6406 83.897 10.1909 83.5059 9.78021C83.1344 9.35001 82.9486 9.05668 82.9486 8.90025V8.81225C82.9486 8.46027 83.1539 8.25494 83.5646 8.19628L87.2604 7.63897C88.0622 7.5412 88.463 7.71719 88.463 8.16695L88.375 16.5266C88.375 18.9905 89.1279 20.2224 90.6336 20.2224C91.3571 20.2224 91.9633 19.9193 92.4522 19.3131C92.941 18.7069 93.1855 17.9345 93.1855 16.9959V11.1295C93.1855 10.6406 92.9899 10.1909 92.5988 9.78021C92.2077 9.35001 92.0122 9.05668 92.0122 8.90025V8.81225C92.0122 8.46027 92.2077 8.25494 92.5988 8.19628L96.324 7.60964Z" fill="white"/>
<path d="M1.08105 39.28C1.08105 34.8618 4.66278 31.28 9.08105 31.28H90.9193C95.3376 31.28 98.9193 34.8618 98.9193 39.28C98.9193 43.6983 95.3376 47.28 90.9193 47.28H9.08106C4.66278 47.28 1.08105 43.6983 1.08105 39.28Z" fill="#F9F871"/>
<path d="M23.6299 42.8943L26.2399 35.4443H27.8399L30.4599 42.8943H29.1199L28.5599 41.2543H25.5199L24.9699 42.8943H23.6299ZM25.8899 40.1443H28.1899L27.0399 36.7443L25.8899 40.1443Z" fill="#17181D"/>
<path d="M36.06 42.8943V35.4443H37.32V41.7843H40.66V42.8943H36.06Z" fill="#17181D"/>
<path d="M46.4068 42.8943V35.4443H49.2768C49.7835 35.4443 50.2335 35.5377 50.6268 35.7243C51.0202 35.9043 51.3268 36.171 51.5468 36.5243C51.7668 36.871 51.8768 37.291 51.8768 37.7843C51.8768 38.2777 51.7635 38.6977 51.5368 39.0443C51.3168 39.391 51.0102 39.6577 50.6168 39.8443C50.2302 40.0243 49.7835 40.1143 49.2768 40.1143H47.6668V42.8943H46.4068ZM47.6668 39.0143H49.2768C49.6768 39.0143 49.9968 38.901 50.2368 38.6743C50.4768 38.4477 50.5968 38.151 50.5968 37.7843C50.5968 37.411 50.4768 37.1143 50.2368 36.8943C49.9968 36.6677 49.6768 36.5543 49.2768 36.5543H47.6668V39.0143Z" fill="#17181D"/>
<path d="M57.6912 42.8943V35.4443H58.9512V38.7843H62.2712V35.4443H63.5412V42.8943H62.2712V39.8943H58.9512V42.8943H57.6912Z" fill="#17181D"/>
<path d="M69.1385 42.8943L71.7485 35.4443H73.3485L75.9685 42.8943H74.6285L74.0685 41.2543H71.0285L70.4785 42.8943H69.1385ZM71.3985 40.1443H73.6985L72.5485 36.7443L71.3985 40.1443Z" fill="#17181D"/>
</g>
</svg>
