<svg width="360" height="560" viewBox="0 0 360 560" fill="none" xmlns="http://www.w3.org/2000/svg">
<path fill-rule="evenodd" clip-rule="evenodd" d="M0 0H360V560H0V0ZM0.5625 1H44.4375V79H0.5625V1ZM45.5625 1H89.4375V79H45.5625V1ZM134.438 1H90.5625V79H134.438V1ZM135.562 1H179.438V79H135.562V1ZM224.438 1H180.562V79H224.438V1ZM225.562 1H269.438V79H225.562V1ZM314.438 1H270.562V79H314.438V1ZM315.562 1H359.438V79H315.562V1ZM44.4375 81H0.5625V159H44.4375V81ZM45.5625 81H89.4375V159H45.5625V81ZM134.438 81H90.5625V159H134.438V81ZM135.562 81H179.438V159H135.562V81ZM224.438 81H180.562V159H224.438V81ZM225.562 81H269.438V159H225.562V81ZM314.438 81H270.562V159H314.438V81ZM315.562 81H359.438V159H315.562V81ZM44.4375 161H0.5625V239H44.4375V161ZM45.5625 161H89.4375V239H45.5625V161ZM134.438 161H90.5625V239H134.438V161ZM135.562 161H179.438V239H135.562V161ZM224.438 161H180.562V239H224.438V161ZM225.562 161H269.438V239H225.562V161ZM314.438 161H270.562V239H314.438V161ZM315.562 161H359.438V239H315.562V161ZM44.4375 241H0.5625V319H44.4375V241ZM45.5625 241H89.4375V319H45.5625V241ZM134.438 241H90.5625V319H134.438V241ZM135.562 241H179.438V319H135.562V241ZM224.438 241H180.562V319H224.438V241ZM225.562 241H269.438V319H225.562V241ZM314.438 241H270.562V319H314.438V241ZM315.562 241H359.438V319H315.562V241ZM44.4375 321H0.5625V399H44.4375V321ZM45.5625 321H89.4375V399H45.5625V321ZM134.438 321H90.5625V399H134.438V321ZM135.562 321H179.438V399H135.562V321ZM224.438 321H180.562V399H224.438V321ZM225.562 321H269.438V399H225.562V321ZM314.438 321H270.562V399H314.438V321ZM315.562 321H359.438V399H315.562V321ZM44.4375 401H0.5625V479H44.4375V401ZM45.5625 401H89.4375V479H45.5625V401ZM134.438 401H90.5625V479H134.438V401ZM135.562 401H179.438V479H135.562V401ZM224.438 401H180.562V479H224.438V401ZM225.562 401H269.438V479H225.562V401ZM314.438 401H270.562V479H314.438V401ZM315.562 401H359.438V479H315.562V401ZM44.4375 481H0.5625V559H44.4375V481ZM45.5625 481H89.4375V559H45.5625V481ZM134.438 481H90.5625V559H134.438V481ZM135.562 481H179.438V559H135.562V481ZM224.438 481H180.562V559H224.438V481ZM225.562 481H269.438V559H225.562V481ZM314.438 481H270.562V559H314.438V481ZM315.562 481H359.438V559H315.562V481Z" fill="#383A41"/>
</svg>
