<svg width="28" height="28" viewBox="0 0 28 28" fill="none" xmlns="http://www.w3.org/2000/svg">
<path d="M21.0363 19.3865L26.0332 24.3821L24.3823 26.033L19.3867 21.0361C17.5279 22.5262 15.2158 23.3367 12.8335 23.3333C7.0375 23.3333 2.3335 18.6293 2.3335 12.8333C2.3335 7.03731 7.0375 2.33331 12.8335 2.33331C18.6295 2.33331 23.3335 7.03731 23.3335 12.8333C23.3369 15.2156 22.5264 17.5277 21.0363 19.3865ZM14.2078 8.37314C13.2119 8.06655 12.1421 8.10208 11.1687 8.47409C10.1954 8.84609 9.37452 9.53317 8.83697 10.4258C8.29942 11.3185 8.07609 12.3654 8.20258 13.3997C8.32907 14.434 8.79809 15.3962 9.53491 16.1331C10.2717 16.8699 11.234 17.3389 12.2683 17.4654C13.3026 17.5919 14.3495 17.3686 15.2421 16.831C16.1348 16.2935 16.8219 15.4726 17.1939 14.4993C17.5659 13.5259 17.6014 12.456 17.2948 11.4601C17.1392 11.804 16.9026 12.1049 16.6051 12.3372C16.3077 12.5694 15.9583 12.7261 15.5871 12.7937C15.2158 12.8613 14.8336 12.8379 14.4734 12.7254C14.1132 12.6128 13.7856 12.4146 13.5188 12.1477C13.252 11.8808 13.0539 11.5532 12.9416 11.1929C12.8292 10.8327 12.8059 10.4505 12.8736 10.0792C12.9414 9.70799 13.0981 9.35871 13.3305 9.06135C13.5629 8.764 13.8639 8.52744 14.2078 8.37198V8.37314Z" fill="white"/>
</svg>
