<svg width="29" height="28" viewBox="0 0 29 28" fill="none" xmlns="http://www.w3.org/2000/svg">
<path d="M24.0893 12.25L25.4917 13.0912C25.5782 13.143 25.6498 13.2163 25.6995 13.304C25.7492 13.3918 25.7754 13.4909 25.7754 13.5917C25.7754 13.6925 25.7492 13.7916 25.6995 13.8794C25.6498 13.9671 25.5782 14.0404 25.4917 14.0922L14.6592 20.5917L3.82667 14.0922C3.74016 14.0404 3.66855 13.9671 3.61883 13.8794C3.5691 13.7916 3.54297 13.6925 3.54297 13.5917C3.54297 13.4909 3.5691 13.3918 3.61883 13.304C3.66855 13.2163 3.74016 13.143 3.82667 13.0912L5.22901 12.25L14.6592 17.9084L24.0893 12.25ZM24.0893 17.7334L25.4917 18.5745C25.5782 18.6263 25.6498 18.6997 25.6995 18.7874C25.7492 18.8751 25.7754 18.9742 25.7754 19.075C25.7754 19.1759 25.7492 19.275 25.6995 19.3627C25.6498 19.4504 25.5782 19.5237 25.4917 19.5755L15.26 25.7145C15.0786 25.8236 14.8709 25.8811 14.6592 25.8811C14.4475 25.8811 14.2398 25.8236 14.0583 25.7145L3.82667 19.5755C3.74016 19.5237 3.66855 19.4504 3.61883 19.3627C3.5691 19.275 3.54297 19.1759 3.54297 19.075C3.54297 18.9742 3.5691 18.8751 3.61883 18.7874C3.66855 18.6997 3.74016 18.6263 3.82667 18.5745L5.22901 17.7334L14.6592 23.3917L24.0893 17.7334ZM15.2588 1.52721L25.4917 7.66621C25.5782 7.718 25.6498 7.79133 25.6995 7.87905C25.7492 7.96677 25.7754 8.06588 25.7754 8.16671C25.7754 8.26754 25.7492 8.36665 25.6995 8.45436C25.6498 8.54208 25.5782 8.61541 25.4917 8.66721L14.6592 15.1667L3.82667 8.66721C3.74016 8.61541 3.66855 8.54208 3.61883 8.45436C3.5691 8.36665 3.54297 8.26754 3.54297 8.16671C3.54297 8.06588 3.5691 7.96677 3.61883 7.87905C3.66855 7.79133 3.74016 7.718 3.82667 7.66621L14.0583 1.52721C14.2398 1.41819 14.4475 1.3606 14.6592 1.3606C14.8709 1.3606 15.0786 1.41819 15.26 1.52721H15.2588Z" fill="white"/>
</svg>
