<svg width="26" height="26" viewBox="0 0 26 26" fill="none" xmlns="http://www.w3.org/2000/svg">
<path d="M13 0.129883L14.0271 8.29783L18.2876 1.25379L15.9037 9.13334L22.6609 4.43118L17.2782 10.6599L25.3637 9.11266L17.9129 12.6135L25.9288 14.4888L17.6982 14.6564L24.2583 19.6299L16.6711 16.4354L20.6412 23.6471L15.0093 17.6428L15.7029 25.8458L13 18.0699L10.2971 25.8458L10.9907 17.6428L5.35879 23.6471L9.32887 16.4354L1.74167 19.6299L8.30178 14.6564L0.0712156 14.4888L8.08706 12.6135L0.636266 9.11266L8.72183 10.6599L3.33912 4.43118L10.0963 9.13334L7.71242 1.25379L11.9729 8.29783L13 0.129883Z" fill="#C4C4C4"/>
</svg>
