<svg width="200" height="72" viewBox="0 0 200 72" fill="none" xmlns="http://www.w3.org/2000/svg">
<g opacity="0.3" clip-path="url(#clip0_497_3)">
<rect width="200" height="72" fill="#17181D"/>
<path d="M81.98 25.6494H86.2918V48.8664H81.98V25.6494Z" fill="white"/>
<path d="M100.565 30.9561C102.798 30.9561 104.589 31.6083 105.938 32.9129C107.287 34.2175 107.961 36.1523 107.961 38.7172V48.8663H103.815V39.2481C103.815 37.7 103.45 36.5393 102.721 35.7653C101.991 34.9693 100.952 34.5713 99.6033 34.5713C98.0773 34.5713 96.8721 35.0357 95.9879 35.9643C95.1034 36.8709 94.6609 38.1867 94.6609 39.9112V48.8663H90.5151V31.1551H94.462V33.4436C95.1476 32.6255 96.01 32.0064 97.0493 31.5862C98.0886 31.1661 99.2605 30.9561 100.565 30.9561Z" fill="white"/>
<path d="M127.822 31.1553L120.226 48.8665H115.948L108.353 31.1553H112.664L118.17 44.2895L123.842 31.1553H127.822Z" fill="white"/>
<path d="M144.919 40.1101C144.919 40.3979 144.897 40.8066 144.853 41.3375H130.955C131.199 42.642 131.829 43.6812 132.846 44.4553C133.885 45.2072 135.168 45.5829 136.693 45.5829C138.639 45.5829 140.242 44.9415 141.503 43.6591L143.725 46.2131C142.929 47.1639 141.923 47.8825 140.707 48.3687C139.49 48.8554 138.12 49.0986 136.594 49.0986C134.648 49.0986 132.935 48.7116 131.453 47.9379C129.972 47.1639 128.822 46.0913 128.004 44.7205C127.207 43.3276 126.81 41.7574 126.81 40.0109C126.81 38.286 127.197 36.7382 127.971 35.3673C128.766 33.9743 129.861 32.8908 131.254 32.1169C132.647 31.343 134.217 30.9561 135.964 30.9561C137.688 30.9561 139.225 31.343 140.574 32.1169C141.945 32.8687 143.006 33.9411 143.758 35.3341C144.532 36.7051 144.919 38.2972 144.919 40.1101ZM135.964 34.2728C134.637 34.2728 133.509 34.6708 132.581 35.4668C131.674 36.2407 131.121 37.2801 130.922 38.5846H140.972C140.795 37.3022 140.253 36.2628 139.347 35.4668C138.44 34.6708 137.313 34.2728 135.964 34.2728Z" fill="white"/>
<path d="M151.19 33.7423C152.384 31.885 154.485 31.2879 157.492 31.2879V34.6047C157.138 34.5383 156.818 34.5052 156.53 34.5052C154.916 34.5052 153.656 35.2791 152.749 36.2299C151.843 37.1585 151.389 38.5072 151.389 40.2763V48.8665H147.243V31.1553H151.19V33.7423Z" fill="white"/>
<path d="M171.479 47.9047C170.992 48.3026 170.396 48.6012 169.688 48.8001C169.003 48.9995 168.273 49.0987 167.499 49.0987C165.553 49.0987 164.05 48.5903 162.988 47.5732C161.927 46.556 161.396 45.0743 161.396 43.1288V34.6046H158.478V31.2879H161.396V27.2415H165.542V31.2879H170.285V34.6046H165.542V43.0291C165.542 43.8916 165.752 44.5546 166.172 45.0192C166.592 45.4613 167.2 45.6827 167.996 45.6827C168.925 45.6827 169.699 45.4392 170.318 44.9529L171.479 47.9047Z" fill="white"/>
<path fill-rule="evenodd" clip-rule="evenodd" d="M71.1372 37.3266C71.1372 49.0734 61.6149 58.5957 49.8681 58.5957C38.1216 58.5957 28.5991 49.0734 28.5991 37.3266C28.5991 25.5801 38.1216 16.0576 49.8681 16.0576C61.6149 16.0576 71.1372 25.5801 71.1372 37.3266ZM64.4528 37.3266C64.4528 45.3813 57.9233 51.9109 49.8686 51.9109C49.3101 51.9109 48.7589 51.8796 48.2167 51.8188C55.5465 51.0485 61.2592 44.8488 61.2592 37.3145C61.2592 29.8184 55.6033 23.643 48.3263 22.8228C48.8331 22.7695 49.3477 22.7422 49.8686 22.7422C57.9233 22.7422 64.4528 29.2719 64.4528 37.3266ZM45.1585 47.5996C49.9653 46.7505 53.6215 42.4742 53.6215 37.3266C53.6215 32.1789 49.9653 27.9026 45.1585 27.0538C45.7402 26.9531 46.3384 26.9006 46.9488 26.9006C52.7069 26.9006 57.3749 31.5685 57.3749 37.3266C57.3749 43.0847 52.7069 47.7526 46.9488 47.7526C46.3384 47.7526 45.7402 47.7001 45.1585 47.5996Z" fill="white"/>
</g>
<defs>
<clipPath id="clip0_497_3">
<rect width="200" height="72" fill="white"/>
</clipPath>
</defs>
</svg>
