<svg width="200" height="72" viewBox="0 0 200 72" fill="none" xmlns="http://www.w3.org/2000/svg">
<g opacity="0.3" clip-path="url(#clip0_497_19)">
<rect width="200" height="72" fill="#17181D"/>
<path d="M39.8497 56.7069H26.3926L39.8497 36.3569H53.3071L39.8497 56.7069Z" fill="white"/>
<path d="M34.9265 15.3506H48.7119L34.9265 36.3568H21.1411L34.9265 15.3506Z" fill="white"/>
<path d="M80.7602 33.0538C80.7602 34.3016 80.4593 35.4717 79.8575 36.5639C79.2782 37.6556 78.3534 38.5359 77.0832 39.2046C75.8352 39.873 74.2531 40.2073 72.3366 40.2073H68.4253V49.1658H63.7456V25.8335H72.3366C74.1416 25.8335 75.6792 26.1455 76.9493 26.7695C78.2199 27.3934 79.1667 28.2514 79.7909 29.3434C80.4372 30.4353 80.7602 31.6722 80.7602 33.0538ZM72.1357 36.43C73.4283 36.43 74.3866 36.1405 75.0108 35.5607C75.6347 34.9593 75.9466 34.1236 75.9466 33.0538C75.9466 30.7808 74.6764 29.6442 72.1357 29.6442H68.4253V36.43H72.1357Z" fill="white"/>
<path d="M87.4258 33.5218C88.0276 32.5413 88.8074 31.7724 89.7656 31.2153C90.7463 30.6582 91.8605 30.3796 93.1086 30.3796V35.2933H91.8715C90.4009 35.2933 89.2867 35.6387 88.529 36.3299C87.7936 37.0207 87.4258 38.2239 87.4258 39.9399V49.1658H82.7461V30.6471H87.4258V33.5218Z" fill="white"/>
<path d="M103.147 49.4667C101.364 49.4667 99.7592 49.0768 98.3331 48.297C96.9069 47.4947 95.7813 46.3691 94.957 44.9205C94.1547 43.4719 93.7534 41.8008 93.7534 39.9064C93.7534 38.0124 94.1658 36.3409 94.9905 34.8924C95.8373 33.4438 96.9849 32.3296 98.4335 31.5496C99.8821 30.7473 101.498 30.3462 103.281 30.3462C105.063 30.3462 106.679 30.7473 108.127 31.5496C109.576 32.3296 110.712 33.4438 111.537 34.8924C112.384 36.3409 112.807 38.0124 112.807 39.9064C112.807 41.8008 112.373 43.4719 111.504 44.9205C110.657 46.3691 109.498 47.4947 108.027 48.297C106.579 49.0768 104.952 49.4667 103.147 49.4667ZM103.147 45.3884C103.993 45.3884 104.785 45.1879 105.52 44.787C106.278 44.3636 106.88 43.7394 107.325 42.915C107.771 42.0903 107.994 41.0876 107.994 39.9064C107.994 38.1459 107.526 36.7978 106.59 35.8616C105.676 34.9034 104.551 34.4245 103.214 34.4245C101.877 34.4245 100.751 34.9034 99.8376 35.8616C98.9459 36.7978 98.5005 38.1459 98.5005 39.9064C98.5005 41.6669 98.9349 43.0265 99.8041 43.9847C100.695 44.9205 101.81 45.3884 103.147 45.3884Z" fill="white"/>
<path d="M119.583 45.4554H124.608V49.1658H114.903V22.9587H119.583V45.4554Z" fill="white"/>
<path d="M128.239 28.4409C127.415 28.4409 126.723 28.1846 126.167 27.672C125.632 27.1372 125.364 26.4798 125.364 25.6998C125.364 24.9198 125.632 24.2736 126.167 23.761C126.723 23.2262 127.415 22.9587 128.239 22.9587C129.064 22.9587 129.743 23.2262 130.278 23.761C130.835 24.2736 131.114 24.9198 131.114 25.6998C131.114 26.4798 130.835 27.1372 130.278 27.672C129.743 28.1846 129.064 28.4409 128.239 28.4409ZM130.545 30.6471V49.1658H125.866V30.6471H130.545Z" fill="white"/>
<path d="M144.095 30.3796C146.3 30.3796 148.083 31.0816 149.443 32.4856C150.802 33.8672 151.482 35.8061 151.482 38.3019V49.1658H146.802V38.9372C146.802 37.4662 146.434 36.3409 145.699 35.5607C144.963 34.7585 143.961 34.3575 142.69 34.3575C141.398 34.3575 140.373 34.7585 139.615 35.5607C138.88 36.3409 138.512 37.4662 138.512 38.9372V49.1658H133.832V30.6471H138.512V32.9536C139.136 32.1513 139.927 31.5273 140.885 31.0816C141.866 30.6136 142.935 30.3796 144.095 30.3796Z" fill="white"/>
<path d="M171.81 39.5055C171.81 40.1739 171.765 40.7757 171.676 41.3105H158.138C158.249 42.6476 158.717 43.6949 159.542 44.4526C160.367 45.2104 161.38 45.5893 162.584 45.5893C164.322 45.5893 165.559 44.8425 166.294 43.3495H171.342C170.807 45.1324 169.782 46.603 168.266 47.7621C166.751 48.8984 164.89 49.4667 162.684 49.4667C160.901 49.4667 159.297 49.0768 157.871 48.297C156.467 47.4947 155.363 46.3691 154.561 44.9205C153.781 43.4719 153.391 41.8008 153.391 39.9064C153.391 37.99 153.781 36.3075 154.561 34.8589C155.341 33.4104 156.433 32.2961 157.837 31.5162C159.241 30.7362 160.857 30.3462 162.684 30.3462C164.444 30.3462 166.016 30.725 167.398 31.4827C168.801 32.2404 169.882 33.3212 170.64 34.7254C171.42 36.107 171.81 37.7001 171.81 39.5055ZM166.963 38.1684C166.941 36.9648 166.506 36.0066 165.659 35.2933C164.812 34.558 163.776 34.1905 162.55 34.1905C161.392 34.1905 160.411 34.547 159.609 35.2602C158.829 35.951 158.35 36.9203 158.171 38.1684H166.963Z" fill="white"/>
</g>
<defs>
<clipPath id="clip0_497_19">
<rect width="200" height="72" fill="white"/>
</clipPath>
</defs>
</svg>
