<svg width="200" height="72" viewBox="0 0 200 72" fill="none" xmlns="http://www.w3.org/2000/svg">
<g opacity="0.3">
<rect width="200" height="72" fill="#17181D"/>
<path d="M41.0441 19.6667L22.5518 41.8577H39.1948L37.3456 56.6513L55.8379 34.4606H39.1948L41.0441 19.6667Z" fill="white"/>
<path d="M82.0186 35.1349V41.9803H72.1448V51.3561H64.3867V23.5601H84.0929V30.4054H72.1448V35.1349H82.0186Z" fill="white"/>
<path d="M94.9128 23.5601V51.3561H87.7769V23.5601H94.9128Z" fill="white"/>
<path d="M106.687 29.5757C107.793 29.5757 108.871 29.8246 109.922 30.3224C111.001 30.7926 111.886 31.4011 112.578 32.1479V30.198H119.714V51.3562H112.578V47.83C112.052 48.9916 111.25 49.9734 110.172 50.7756C109.093 51.5777 107.793 51.9786 106.272 51.9786C104.695 51.9786 103.215 51.5777 101.833 50.7756C100.45 49.9734 99.3156 48.7427 98.4309 47.0832C97.5734 45.3959 97.1445 43.2802 97.1445 40.7356C97.1445 38.357 97.5734 36.338 98.4309 34.6785C99.3156 33.0191 100.478 31.7606 101.916 30.9032C103.382 30.0182 104.972 29.5757 106.687 29.5757ZM108.18 36.5455C107.157 36.5455 106.299 36.9603 105.608 37.7901C104.944 38.6198 104.612 39.6017 104.612 40.7356C104.612 41.8698 104.958 42.824 105.649 43.5981C106.341 44.3726 107.254 44.76 108.388 44.76C108.996 44.76 109.618 44.6076 110.255 44.3035C110.89 43.9717 111.43 43.4875 111.872 42.8516C112.343 42.1877 112.578 41.3441 112.578 40.3208V38.2879C111.969 37.7901 111.278 37.3752 110.503 37.0433C109.757 36.7114 108.982 36.5455 108.18 36.5455Z" fill="white"/>
<path d="M130.782 29.5757C132.166 29.5757 133.438 29.7831 134.599 30.198C135.788 30.5852 136.743 31.1245 137.462 31.816V37.4167C136.743 36.9742 135.927 36.5593 135.014 36.1721C134.102 35.7572 133.12 35.5498 132.068 35.5498C131.405 35.5498 130.81 35.6881 130.285 35.9647C129.787 36.2136 129.538 36.6146 129.538 37.1678C129.538 37.555 129.69 37.8454 129.994 38.039C130.299 38.2326 130.893 38.44 131.778 38.6613L133.064 38.9932C136.743 39.9336 138.582 41.9112 138.582 44.9259C138.582 46.3087 138.167 47.5393 137.337 48.6183C136.535 49.6693 135.471 50.4987 134.143 51.1073C132.843 51.6883 131.433 51.9786 129.911 51.9786C128.335 51.9786 126.869 51.7574 125.514 51.3147C124.158 50.8447 122.997 50.2775 122.029 49.614V44.0547C123.024 44.6629 124.145 45.1747 125.389 45.5895C126.662 46.0045 127.795 46.2119 128.791 46.2119C129.593 46.2119 130.174 46.1151 130.534 45.9216C130.921 45.7281 131.114 45.3821 131.114 44.8844C131.114 44.497 130.893 44.2067 130.451 44.0132C130.008 43.792 129.372 43.5428 128.542 43.2663L126.427 42.6024C124.878 42.1324 123.744 41.3994 123.024 40.4037C122.305 39.3804 121.946 38.1358 121.946 36.6699C121.946 35.2041 122.333 33.9456 123.107 32.8946C123.882 31.8436 124.933 31.0277 126.26 30.4469C127.616 29.8661 129.123 29.5757 130.782 29.5757Z" fill="white"/>
<path d="M153.301 29.5757C155.459 29.5757 157.215 30.3086 158.57 31.7745C159.953 33.2403 160.644 35.4115 160.644 38.2879V51.3562H153.509L153.467 39.4081C153.467 38.3571 153.177 37.6241 152.596 37.2092C152.015 36.7667 151.365 36.5455 150.646 36.5455C149.872 36.5455 149.222 36.7529 148.696 37.1678C148.171 37.555 147.714 38.0252 147.327 38.5783V51.3562H140.191V23.5601H147.327V32.9361C147.991 32.0234 148.793 31.2352 149.733 30.5714C150.701 29.9076 151.891 29.5757 153.301 29.5757Z" fill="white"/>
<path d="M160.285 23.7219V24.6046H159.223V27.2902H158.214V24.6046H157.151V23.7219H160.285Z" fill="white"/>
<path d="M164.427 23.6685V27.3063H163.418V25.5409L162.679 26.3701H162.377L161.638 25.5409V27.3063H160.629V23.6685H160.986L162.528 25.2199L164.071 23.6685H164.427Z" fill="white"/>
</g>
</svg>
