<svg width="163" height="73" viewBox="0 0 163 73" fill="none" xmlns="http://www.w3.org/2000/svg">
<path d="M2 36.6514L152 36.6514" stroke="#F9F871" stroke-width="4" stroke-linecap="round" stroke-linejoin="round"/>
<mask id="path-2-outside-1_247_959" maskUnits="userSpaceOnUse" x="127.5" y="12.5312" width="29" height="49" fill="black">
<rect fill="white" x="127.5" y="12.5312" width="29" height="49"/>
<path d="M131.5 16.5312L151.75 36.6511L131.5 56.771"/>
</mask>
<path d="M134.319 13.6937C132.752 12.1367 130.22 12.1448 128.662 13.712C127.105 15.2791 127.114 17.8117 128.681 19.3688L134.319 13.6937ZM151.75 36.6511L154.569 39.4887C155.325 38.7378 155.75 37.7165 155.75 36.6511C155.75 35.5858 155.325 34.5645 154.569 33.8136L151.75 36.6511ZM128.681 53.9335C127.114 55.4905 127.105 58.0232 128.662 59.5903C130.22 61.1574 132.752 61.1656 134.319 59.6085L128.681 53.9335ZM128.681 19.3688L148.931 39.4887L154.569 33.8136L134.319 13.6937L128.681 19.3688ZM148.931 33.8136L128.681 53.9335L134.319 59.6085L154.569 39.4887L148.931 33.8136Z" fill="#F9F871" mask="url(#path-2-outside-1_247_959)"/>
</svg>
