<svg width="24" height="25" viewBox="0 0 24 25" fill="none" xmlns="http://www.w3.org/2000/svg">
<path d="M12 2.12891C14.717 2.12891 15.056 2.13891 16.122 2.18891C17.187 2.23891 17.912 2.40591 18.55 2.65391C19.21 2.90791 19.766 3.25191 20.322 3.80691C20.8305 4.3068 21.224 4.91149 21.475 5.57891C21.722 6.21591 21.89 6.94191 21.94 8.00691C21.987 9.07291 22 9.41191 22 12.1289C22 14.8459 21.99 15.1849 21.94 16.2509C21.89 17.3159 21.722 18.0409 21.475 18.6789C21.2247 19.3467 20.8311 19.9515 20.322 20.4509C19.822 20.9592 19.2173 21.3527 18.55 21.6039C17.913 21.8509 17.187 22.0189 16.122 22.0689C15.056 22.1159 14.717 22.1289 12 22.1289C9.283 22.1289 8.944 22.1189 7.878 22.0689C6.813 22.0189 6.088 21.8509 5.45 21.6039C4.78233 21.3534 4.17753 20.9599 3.678 20.4509C3.16941 19.9511 2.77593 19.3464 2.525 18.6789C2.277 18.0419 2.11 17.3159 2.06 16.2509C2.013 15.1849 2 14.8459 2 12.1289C2 9.41191 2.01 9.07291 2.06 8.00691C2.11 6.94091 2.277 6.21691 2.525 5.57891C2.77524 4.91109 3.1688 4.30623 3.678 3.80691C4.17767 3.29814 4.78243 2.90464 5.45 2.65391C6.088 2.40591 6.812 2.23891 7.878 2.18891C8.944 2.14191 9.283 2.12891 12 2.12891ZM12 7.12891C10.6739 7.12891 9.40215 7.65569 8.46447 8.59337C7.52678 9.53105 7 10.8028 7 12.1289C7 13.455 7.52678 14.7268 8.46447 15.6644C9.40215 16.6021 10.6739 17.1289 12 17.1289C13.3261 17.1289 14.5979 16.6021 15.5355 15.6644C16.4732 14.7268 17 13.455 17 12.1289C17 10.8028 16.4732 9.53105 15.5355 8.59337C14.5979 7.65569 13.3261 7.12891 12 7.12891ZM18.5 6.87891C18.5 6.54739 18.3683 6.22944 18.1339 5.99502C17.8995 5.7606 17.5815 5.62891 17.25 5.62891C16.9185 5.62891 16.6005 5.7606 16.3661 5.99502C16.1317 6.22944 16 6.54739 16 6.87891C16 7.21043 16.1317 7.52837 16.3661 7.76279C16.6005 7.99721 16.9185 8.12891 17.25 8.12891C17.5815 8.12891 17.8995 7.99721 18.1339 7.76279C18.3683 7.52837 18.5 7.21043 18.5 6.87891ZM12 9.12891C12.7956 9.12891 13.5587 9.44498 14.1213 10.0076C14.6839 10.5702 15 11.3333 15 12.1289C15 12.9246 14.6839 13.6876 14.1213 14.2502C13.5587 14.8128 12.7956 15.1289 12 15.1289C11.2044 15.1289 10.4413 14.8128 9.87868 14.2502C9.31607 13.6876 9 12.9246 9 12.1289C9 11.3333 9.31607 10.5702 9.87868 10.0076C10.4413 9.44498 11.2044 9.12891 12 9.12891Z" fill="white"/>
</svg>
