<svg width="24" height="25" viewBox="0 0 24 25" fill="none" xmlns="http://www.w3.org/2000/svg">
<path d="M6.93994 5.12893C6.93968 5.65936 6.72871 6.16797 6.35345 6.54285C5.97819 6.91774 5.46937 7.1282 4.93894 7.12793C4.40851 7.12767 3.89991 6.9167 3.52502 6.54144C3.15014 6.16618 2.93968 5.65736 2.93994 5.12693C2.94021 4.5965 3.15117 4.08789 3.52644 3.71301C3.9017 3.33812 4.41051 3.12766 4.94094 3.12793C5.47137 3.1282 5.97998 3.33916 6.35486 3.71442C6.72975 4.08968 6.94021 4.5985 6.93994 5.12893ZM6.99994 8.60893H2.99994V21.1289H6.99994V8.60893ZM13.3199 8.60893H9.33994V21.1289H13.2799V14.5589C13.2799 10.8989 18.0499 10.5589 18.0499 14.5589V21.1289H21.9999V13.1989C21.9999 7.02893 14.9399 7.25893 13.2799 10.2889L13.3199 8.60893Z" fill="white"/>
</svg>
