<svg width="24" height="25" viewBox="0 0 24 25" fill="none" xmlns="http://www.w3.org/2000/svg">
<path d="M22.1618 5.78483C21.3984 6.12253 20.5888 6.34431 19.7598 6.44283C20.6336 5.92027 21.2875 5.09785 21.5998 4.12883C20.7798 4.61683 19.8808 4.95883 18.9438 5.14383C18.3144 4.47041 17.4802 4.0238 16.5708 3.87342C15.6614 3.72304 14.7277 3.87732 13.9151 4.31229C13.1024 4.74725 12.4562 5.43852 12.0769 6.27863C11.6976 7.11873 11.6066 8.06061 11.8178 8.95783C10.1549 8.87449 8.52814 8.44236 7.0431 7.6895C5.55805 6.93664 4.24794 5.87988 3.19781 4.58783C2.8261 5.22628 2.63076 5.95206 2.63181 6.69083C2.63181 8.14083 3.36981 9.42183 4.49181 10.1718C3.82782 10.1509 3.17844 9.97161 2.59781 9.64883V9.70083C2.59801 10.6665 2.93218 11.6024 3.54366 12.3499C4.15513 13.0973 5.00629 13.6103 5.95281 13.8018C5.33642 13.9689 4.69012 13.9935 4.06281 13.8738C4.32968 14.7051 4.84982 15.432 5.5504 15.9529C6.25099 16.4739 7.09694 16.7626 7.96981 16.7788C7.10229 17.4602 6.10899 17.9638 5.04669 18.261C3.98439 18.5582 2.87394 18.6431 1.77881 18.5108C3.69051 19.7403 5.9159 20.393 8.18881 20.3908C15.8818 20.3908 20.0888 14.0178 20.0888 8.49083C20.0888 8.31083 20.0838 8.12883 20.0758 7.95083C20.8947 7.359 21.6014 6.62585 22.1628 5.78583L22.1618 5.78483Z" fill="white"/>
</svg>
