<svg width="65" height="65" viewBox="0 0 65 65" fill="none" xmlns="http://www.w3.org/2000/svg">
<path d="M32.5 54.6299V10.6294" stroke="white" stroke-width="4" stroke-linecap="round" stroke-linejoin="round"/>
<mask id="path-2-outside-1_504_137" maskUnits="userSpaceOnUse" x="10.5" y="6.62939" width="44" height="26" fill="black">
<rect fill="white" x="10.5" y="6.62939" width="44" height="26"/>
<path d="M14.5 28.6294L32.5 10.6296L50.5 28.6294"/>
</mask>
<path d="M11.6716 25.801C10.1095 27.363 10.1095 29.8957 11.6716 31.4578C13.2336 33.0199 15.7663 33.0199 17.3284 31.4578L11.6716 25.801ZM32.5 10.6296L35.3284 7.80112C33.7663 6.23904 31.2337 6.23904 29.6716 7.80112L32.5 10.6296ZM47.6716 31.4578C49.2337 33.0199 51.7663 33.0199 53.3284 31.4578C54.8905 29.8957 54.8905 27.363 53.3284 25.801L47.6716 31.4578ZM17.3284 31.4578L35.3284 13.458L29.6716 7.80112L11.6716 25.801L17.3284 31.4578ZM29.6716 13.458L47.6716 31.4578L53.3284 25.801L35.3284 7.80112L29.6716 13.458Z" fill="white" mask="url(#path-2-outside-1_504_137)"/>
</svg>
