<svg width="24" height="24" viewBox="0 0 24 24" fill="none" xmlns="http://www.w3.org/2000/svg">
<path d="M14.1205 10.48C13.9329 10.2925 13.6786 10.1872 13.4135 10.1872C13.1483 10.1872 12.894 10.2925 12.7065 10.48L11.9995 11.186C11.815 11.377 11.5943 11.5294 11.3503 11.6342C11.1063 11.739 10.8438 11.7942 10.5783 11.7965C10.3127 11.7988 10.0494 11.7482 9.80356 11.6476C9.55777 11.5471 9.33447 11.3986 9.14668 11.2108C8.9589 11.023 8.81039 10.7997 8.70983 10.5539C8.60927 10.3081 8.55866 10.0447 8.56097 9.77919C8.56328 9.51363 8.61845 9.25119 8.72327 9.00718C8.82809 8.76317 8.98045 8.54248 9.17147 8.35799L14.8015 2.72599C16.1344 2.42281 17.529 2.54759 18.7869 3.08256C20.0448 3.61754 21.1021 4.53549 21.8084 5.70588C22.5146 6.87627 22.8339 8.23953 22.7208 9.60182C22.6077 10.9641 22.068 12.2561 21.1785 13.294L19.0705 15.429L14.1205 10.479V10.48ZM3.16047 4.46799C4.19523 3.43337 5.54869 2.77797 7.00203 2.60775C8.45537 2.43754 9.92365 2.76246 11.1695 3.52999L7.75647 6.94399C7.01727 7.68172 6.5959 8.67929 6.58241 9.72355C6.56891 10.7678 6.96436 11.7759 7.68425 12.5325C8.40414 13.2891 9.39138 13.7341 10.435 13.7725C11.4787 13.8109 12.4959 13.4396 13.2695 12.738L13.4135 12.601L17.6565 16.843L13.4135 21.086C13.0384 21.4609 12.5298 21.6716 11.9995 21.6716C11.4691 21.6716 10.9605 21.4609 10.5855 21.086L3.15947 13.66C1.9406 12.441 1.25586 10.7878 1.25586 9.06399C1.25586 7.34018 1.9406 5.68696 3.15947 4.46799H3.16047Z" fill="#383A41"/>
</svg>
