<svg width="20" height="20" viewBox="0 0 20 20" fill="none" xmlns="http://www.w3.org/2000/svg">
<g opacity="0.4">
<path d="M9.28433 3.33335C7.96599 3.33335 7.29516 3.47419 6.67766 3.80419C6.16268 4.07515 5.74195 4.49587 5.471 5.01085C5.141 5.62752 5.00016 6.29919 5.00016 7.61669V12.3817C5.00016 13.7 5.141 14.3709 5.471 14.9884C5.75183 15.5134 6.15266 15.9142 6.67766 16.195C7.29433 16.525 7.96599 16.6659 9.28433 16.6659H10.716C12.0343 16.6659 12.7052 16.525 13.3227 16.195C13.8376 15.9241 14.2584 15.5033 14.5293 14.9884C14.8593 14.3717 15.0002 13.7 15.0002 12.3817V7.61669C15.0002 6.29835 14.8593 5.62752 14.5293 5.01002C14.2584 4.49504 13.8376 4.07431 13.3227 3.80335C12.706 3.47419 12.0343 3.33335 10.7168 3.33335H9.28349H9.28433ZM9.28433 1.66669H10.716C12.3943 1.66669 13.2943 1.89835 14.1093 2.33419C14.9146 2.76043 15.5731 3.41893 15.9993 4.22419C16.4352 5.03919 16.6668 5.93919 16.6668 7.61752V12.3825C16.6668 14.0609 16.4352 14.9609 15.9993 15.7759C15.5731 16.5811 14.9146 17.2396 14.1093 17.6659C13.2943 18.1017 12.3943 18.3334 10.716 18.3334H9.28349C7.60516 18.3334 6.70516 18.1017 5.89016 17.6659C5.08491 17.2396 4.4264 16.5811 4.00016 15.7759C3.56516 14.9609 3.3335 14.0609 3.3335 12.3825V7.61669C3.3335 5.93835 3.56516 5.03835 4.001 4.22335C4.42759 3.41829 5.08638 2.76007 5.89183 2.33419C6.706 1.89835 7.606 1.66669 9.28433 1.66669ZM9.16683 5.00002H10.8335V9.16669H9.16683V5.00002Z" fill="white"/>
</g>
</svg>
