<svg width="74" height="30" viewBox="0 0 74 30" fill="none" xmlns="http://www.w3.org/2000/svg">
<path d="M4.265 24V16.86L8.185 12.73L15.5 24H20.225L11.02 9.86L19.735 0.549999H14.94L7.52 8.39L4.125 12.24L4.265 7.655V0.549999H0.31V24H4.265ZM24.5814 29.845C27.3464 29.845 29.3414 28.62 30.5664 25.19L36.8664 6.955H32.5264L29.4814 16.615L28.2564 21.165L27.0314 16.615L23.9514 6.955H19.6464L25.2814 22.95H27.6964L27.3814 23.895C26.7514 25.785 25.9114 26.38 24.5814 26.38C23.0064 26.38 21.9564 25.4 21.0464 24.105L19.1914 27.255C20.1364 28.585 22.1314 29.845 24.5814 29.845ZM42.4371 24V14.445C42.4371 11.645 43.4171 9.79 46.2871 9.79C48.9121 9.79 49.6121 11.225 49.6121 13.325V24H53.5671V12.135C53.5671 8.6 51.5371 6.605 48.2121 6.605C44.8171 6.605 43.0671 8.915 42.4371 11.61V6.955H38.5171V24H42.4371ZM64.6961 24.35C69.6661 24.35 73.0261 20.78 73.0261 15.495C73.0261 10.175 69.6661 6.605 64.6961 6.605C59.7961 6.605 56.4361 10.175 56.4361 15.495C56.4361 20.78 59.7961 24.35 64.6961 24.35ZM64.7311 21.095C62.2111 21.095 60.4611 19.415 60.4611 15.495C60.4611 11.54 62.2111 9.86 64.7311 9.86C67.2861 9.86 69.0361 11.54 69.0361 15.495C69.0361 19.415 67.2861 21.095 64.7311 21.095Z" fill="white"/>
</svg>
