<svg width="24" height="24" viewBox="0 0 24 24" fill="none" xmlns="http://www.w3.org/2000/svg">
<path d="M23 11.4267C23 11.3692 23 11.3038 22.9975 11.2279C22.9951 11.016 22.9902 10.7779 22.9853 10.5242C22.9656 9.79424 22.9312 9.06694 22.8772 8.3815C22.8036 7.43706 22.6955 6.64958 22.5482 6.05833C22.3927 5.4413 22.088 4.87855 21.6645 4.42634C21.2409 3.97412 20.7134 3.64828 20.1346 3.48138C19.4397 3.28255 18.0795 3.15959 16.1643 3.08372C15.2533 3.04709 14.2786 3.02355 13.3038 3.01046C12.9625 3.00523 12.6458 3.00262 12.3609 3H11.6391C11.3542 3.00262 11.0375 3.00523 10.6962 3.01046C9.72143 3.02355 8.74665 3.04709 7.83571 3.08372C5.92054 3.1622 4.55781 3.28516 3.8654 3.48138C3.28643 3.64787 2.7587 3.97358 2.33509 4.42585C1.91147 4.87813 1.60687 5.44109 1.45179 6.05833C1.30201 6.64958 1.19643 7.43706 1.12277 8.3815C1.06875 9.06694 1.03437 9.79424 1.01473 10.5242C1.00737 10.7779 1.00491 11.016 1.00246 11.2279C1.00246 11.3038 1 11.3692 1 11.4267V11.5733C1 11.6308 1 11.6962 1.00246 11.7721C1.00491 11.984 1.00982 12.2221 1.01473 12.4758C1.03437 13.2058 1.06875 13.9331 1.12277 14.6185C1.19643 15.5629 1.30446 16.3504 1.45179 16.9417C1.76607 18.1948 2.68929 19.1837 3.8654 19.5186C4.55781 19.7175 5.92054 19.8404 7.83571 19.9163C8.74665 19.9529 9.72143 19.9765 10.6962 19.9895C11.0375 19.9948 11.3542 19.9974 11.6391 20H12.3609C12.6458 19.9974 12.9625 19.9948 13.3038 19.9895C14.2786 19.9765 15.2533 19.9529 16.1643 19.9163C18.0795 19.8378 19.4422 19.7148 20.1346 19.5186C21.3107 19.1837 22.2339 18.1974 22.5482 16.9417C22.698 16.3504 22.8036 15.5629 22.8772 14.6185C22.9312 13.9331 22.9656 13.2058 22.9853 12.4758C22.9926 12.2221 22.9951 11.984 22.9975 11.7721C22.9975 11.6962 23 11.6308 23 11.5733V11.4267ZM21.2321 11.5628C21.2321 11.6177 21.2321 11.6779 21.2297 11.7485C21.2272 11.9526 21.2223 12.1776 21.2174 12.4209C21.2002 13.1168 21.1658 13.8127 21.1143 14.4589C21.048 15.3013 20.9547 15.992 20.8393 16.4551C20.6871 17.0594 20.2402 17.5382 19.6754 17.6978C19.1598 17.8443 17.8609 17.962 16.0955 18.0326C15.2018 18.0693 14.2393 18.0928 13.2792 18.1059C12.9429 18.1111 12.631 18.1137 12.3511 18.1137H11.6489L10.7208 18.1059C9.76071 18.0928 8.80067 18.0693 7.90446 18.0326C6.13906 17.9594 4.83772 17.8443 4.32455 17.6978C3.75982 17.5356 3.31295 17.0594 3.16071 16.4551C3.04531 15.992 2.95201 15.3013 2.88571 14.4589C2.83415 13.8127 2.80223 13.1168 2.78259 12.4209C2.77522 12.1776 2.77277 11.95 2.77031 11.7485C2.77031 11.6779 2.76786 11.6151 2.76786 11.5628V11.4372C2.76786 11.3823 2.76786 11.3221 2.77031 11.2515C2.77277 11.0474 2.77768 10.8224 2.78259 10.5791C2.79978 9.88319 2.83415 9.18729 2.88571 8.54109C2.95201 7.69868 3.04531 7.008 3.16071 6.54494C3.31295 5.9406 3.75982 5.46183 4.32455 5.30225C4.84018 5.15574 6.13906 5.03801 7.90446 4.96737C8.79821 4.93075 9.76071 4.9072 10.7208 4.89412C11.0571 4.88889 11.369 4.88627 11.6489 4.88627H12.3511L13.2792 4.89412C14.2393 4.9072 15.1993 4.93075 16.0955 4.96737C17.8609 5.04063 19.1623 5.15574 19.6754 5.30225C20.2402 5.46445 20.6871 5.9406 20.8393 6.54494C20.9547 7.008 21.048 7.69868 21.1143 8.54109C21.1658 9.18729 21.1978 9.88319 21.2174 10.5791C21.2248 10.8224 21.2272 11.05 21.2297 11.2515C21.2297 11.3221 21.2321 11.3849 21.2321 11.4372V11.5628ZM9.81473 15.0057L15.5112 11.4738L9.81473 7.99431V15.0057Z" fill="white"/>
</svg>
